<?xml version="1.0" encoding="UTF-8" standalone="no"?>
<!DOCTYPE svg PUBLIC "-//W3C//DTD SVG 1.1//EN" "http://www.w3.org/Graphics/SVG/1.1/DTD/svg11.dtd">
<svg width="100%" height="100%" viewBox="0 0 24 24" version="1.1" xmlns="http://www.w3.org/2000/svg" xmlns:xlink="http://www.w3.org/1999/xlink" xml:space="preserve" xmlns:serif="http://www.serif.com/" style="fill-rule:evenodd;clip-rule:evenodd;stroke-linejoin:round;stroke-miterlimit:2;">
    <g id="ic_fluent_my_location_24_regular" transform="matrix(0.036,0,0,0.036,-2.4,-2.4)">
        <path id="🎨-Color" d="M400,66.667C412.657,66.667 423.116,76.072 424.772,88.274L425,91.667L424.969,151.257C543.094,162.919 637.081,256.906 648.774,375.084L650,375L708.333,375C722.14,375 733.333,386.193 733.333,400C733.333,412.657 723.928,423.116 711.726,424.772L708.333,425L648.722,424.968C637.081,543.094 543.094,637.081 424.916,648.774L425,650L425,708.333C425,722.14 413.807,733.333 400,733.333C387.343,733.333 376.884,723.928 375.228,711.726L375,708.333L375.032,648.722C256.906,637.081 162.919,543.094 151.226,424.916L150,425L91.667,425C77.86,425 66.667,413.807 66.667,400C66.667,387.343 76.072,376.884 88.274,375.228L91.667,375L151.257,375.031C162.919,256.906 256.906,162.919 375.084,151.226L375,150L375,91.667C375,77.86 386.193,66.667 400,66.667ZM400,200C289.543,200 200,289.543 200,400C200,510.457 289.543,600 400,600C510.457,600 600,510.457 600,400C600,289.543 510.457,200 400,200ZM400,266.667C473.638,266.667 533.333,326.362 533.333,400C533.333,473.638 473.638,533.333 400,533.333C326.362,533.333 266.667,473.638 266.667,400C266.667,326.362 326.362,266.667 400,266.667Z" style="fill:rgb(29,29,29);fill-rule:nonzero;"/>
    </g>
</svg>
