<?xml version="1.0" encoding="UTF-8" standalone="no"?>
<!DOCTYPE svg PUBLIC "-//W3C//DTD SVG 1.1//EN" "http://www.w3.org/Graphics/SVG/1.1/DTD/svg11.dtd">
<svg width="100%" height="100%" viewBox="0 0 99 117" version="1.1" xmlns="http://www.w3.org/2000/svg" xmlns:xlink="http://www.w3.org/1999/xlink" xml:space="preserve" xmlns:serif="http://www.serif.com/" style="fill-rule:evenodd;clip-rule:evenodd;stroke-linejoin:round;stroke-miterlimit:2;">
    <g transform="matrix(0.111546,0,0,-0.111546,-11.3064,123.816)">
        <path d="M487,1092C460,1063 465,1005 496,981C510,970 526,959 533,957C552,951 506,866 468,836C450,822 415,796 390,778C338,739 313,700 302,639L294,595L792,595L787,631C779,691 749,741 701,774C606,839 550,902 550,943C550,951 561,962 574,968C588,974 604,989 610,1000L622,1022L593,1000C571,985 556,981 536,986C491,997 474,1056 507,1092C516,1102 519,1110 513,1110C508,1110 496,1102 487,1092Z" style="fill:white;fill-rule:nonzero;"/>
        <path d="M450,936C286,901 149,766 110,602C93,530 102,409 129,340C171,230 270,131 380,88C464,56 597,52 678,79C713,91 760,112 782,126C883,190 962,310 983,434C1015,619 909,820 737,901C678,928 580,954 570,944C568,941 573,927 582,912C599,884 609,877 699,838C774,806 844,735 882,653C910,595 914,575 914,505C913,401 886,329 819,255C654,75 372,93 237,292C95,501 198,790 439,861C469,870 488,883 501,904C521,937 525,951 513,949C508,949 480,943 450,936Z" style="fill:white;fill-rule:nonzero;"/>
        <path d="M305,572C275,567 264,560 262,545C259,525 265,525 545,525C835,525 854,528 813,561C801,572 746,575 571,577C447,577 327,575 305,572Z" style="fill:white;fill-rule:nonzero;"/>
        <path d="M351,509C288,504 231,495 223,489C202,471 207,385 232,337L255,295L258,326C260,344 275,374 293,395L325,431L360,395C394,360 395,356 399,269C402,184 403,178 427,169C440,164 453,160 456,160C458,160 460,210 460,271C460,333 465,391 471,403C485,430 531,480 542,480C546,480 565,463 585,443L619,405L620,283C620,213 624,160 629,160C634,160 650,164 664,170C689,179 690,182 690,265C690,349 691,351 725,388L760,425L795,388C817,364 830,340 830,323C831,297 833,298 855,340C879,386 887,453 871,479C866,486 840,496 812,501C727,514 470,519 351,509Z" style="fill:white;fill-rule:nonzero;"/>
    </g>
</svg>
