<?xml version="1.0" encoding="UTF-8" standalone="no"?>
<!DOCTYPE svg PUBLIC "-//W3C//DTD SVG 1.1//EN" "http://www.w3.org/Graphics/SVG/1.1/DTD/svg11.dtd">
<svg width="100%" height="100%" viewBox="0 0 24 24" version="1.1" xmlns="http://www.w3.org/2000/svg" xmlns:xlink="http://www.w3.org/1999/xlink" xml:space="preserve" xmlns:serif="http://www.serif.com/" style="fill-rule:evenodd;clip-rule:evenodd;stroke-linejoin:round;stroke-miterlimit:2;">
    <g transform="matrix(2.96,0,0,2.96,-16.6,-14.8)">
        <path d="M10.191,5.035C10.139,5.429 10.225,5.791 10.448,6.12C10.806,5.947 11.061,5.676 11.214,5.309C11.541,5.444 11.849,5.622 12.13,5.838C11.888,6.153 11.781,6.509 11.81,6.906C12.207,6.935 12.563,6.828 12.878,6.586C13.094,6.867 13.272,7.175 13.408,7.503C13.04,7.655 12.77,7.91 12.596,8.268C12.925,8.491 13.287,8.577 13.682,8.525C13.728,8.876 13.728,9.232 13.682,9.583C13.287,9.531 12.925,9.617 12.596,9.84C12.77,10.198 13.04,10.453 13.408,10.605C13.272,10.933 13.094,11.241 12.878,11.522C12.563,11.28 12.207,11.173 11.81,11.202C11.781,11.599 11.888,11.955 12.13,12.27C11.849,12.486 11.541,12.664 11.214,12.8C11.061,12.432 10.806,12.162 10.448,11.988C10.225,12.317 10.139,12.679 10.191,13.073C9.84,13.12 9.484,13.12 9.133,13.073C9.185,12.679 9.099,12.317 8.876,11.988C8.518,12.162 8.263,12.432 8.111,12.8C7.783,12.664 7.475,12.486 7.194,12.27C7.436,11.955 7.543,11.599 7.514,11.202C7.118,11.173 6.761,11.28 6.446,11.522C6.23,11.241 6.052,10.933 5.917,10.605C6.284,10.453 6.555,10.198 6.728,9.84C6.399,9.617 6.037,9.531 5.643,9.583C5.597,9.232 5.597,8.876 5.643,8.525C6.037,8.577 6.399,8.491 6.728,8.268C6.555,7.91 6.284,7.655 5.917,7.503C6.052,7.175 6.23,6.867 6.446,6.586C6.761,6.828 7.118,6.935 7.514,6.906C7.543,6.509 7.436,6.153 7.194,5.838C7.475,5.622 7.783,5.444 8.111,5.309C8.263,5.676 8.518,5.947 8.876,6.12C9.099,5.791 9.185,5.429 9.133,5.035C9.484,4.988 9.84,4.988 10.191,5.035ZM9.662,7.257C10.654,7.257 11.459,8.063 11.459,9.054C11.459,10.046 10.654,10.851 9.662,10.851C8.671,10.851 7.866,10.046 7.866,9.054C7.866,8.063 8.671,7.257 9.662,7.257Z" style="fill:white;"/>
    </g>
</svg>
