<?xml version="1.0" encoding="UTF-8" standalone="no"?>
<!DOCTYPE svg PUBLIC "-//W3C//DTD SVG 1.1//EN" "http://www.w3.org/Graphics/SVG/1.1/DTD/svg11.dtd">
<svg width="100%" height="100%" viewBox="0 0 24 24" version="1.1" xmlns="http://www.w3.org/2000/svg" xmlns:xlink="http://www.w3.org/1999/xlink" xml:space="preserve" xmlns:serif="http://www.serif.com/" style="fill-rule:evenodd;clip-rule:evenodd;stroke-linejoin:round;stroke-miterlimit:2;">
    <g transform="matrix(0.12617,0,0,0.12617,-38.2771,-5.44095)">
        <path d="M338,201C379.29,214.9 424.15,186.96 431.93,144.93C439.7,102.89 405.27,60.55 363,59C427.13,29.13 495.46,94.1 481.02,158.02C466.59,221.95 383.91,247.86 338,201ZM332,102C337.84,98.82 343.59,95.05 350,93C350.08,99.37 341.22,104.73 342.01,111.01C342.8,117.29 350.08,122.8 351,129C344.71,127.55 340.18,121.52 333.78,120.22C327.37,118.93 321.3,127.82 315,128C314.46,121.59 323.74,116.37 322.98,109.98C322.21,103.58 314.36,98.67 314,92C320.27,94.74 326.63,97.9 332,102ZM399,118C395.08,123.66 396.87,128.57 400,134C394.11,128.74 388.91,131.15 383,134C387.51,128.73 386.93,123.6 384,118C389.55,120.49 393.54,121.05 399,118ZM372,146C370.67,151.41 366.23,155.48 365,161C368.37,164.04 369.96,169.05 372,173C363.37,165.98 353.8,166.86 345,173C346.23,168.46 351.68,164.68 351.92,159.92C352.15,155.16 344.32,151.07 345,146C354.17,152.6 362.91,154.19 372,146Z" style="fill:white;"/>
    </g>
</svg>
