<?xml version="1.0" encoding="UTF-8" standalone="no"?>
<!DOCTYPE svg PUBLIC "-//W3C//DTD SVG 1.1//EN" "http://www.w3.org/Graphics/SVG/1.1/DTD/svg11.dtd">
<svg width="100%" height="100%" viewBox="0 0 24 24" version="1.1" xmlns="http://www.w3.org/2000/svg" xmlns:xlink="http://www.w3.org/1999/xlink" xml:space="preserve" xmlns:serif="http://www.serif.com/" style="fill-rule:evenodd;clip-rule:evenodd;stroke-linejoin:round;stroke-miterlimit:2;">
    <g transform="matrix(0.103448,0,0,0.103448,-1.81034,-2.37931)">
        <path d="M134,23C139.39,37.07 141.87,53.86 158.23,59.77C174.59,65.68 188.65,51.57 202,45C198.09,59.92 190.3,75.21 200.3,89.7C210.31,104.19 229.07,100.24 243,104C230.64,112.85 216.14,123.08 216.67,139.67C217.2,156.26 231.42,165.13 244,174C229.16,176.61 211.04,173.25 200.25,187.25C189.45,201.24 199.18,218.04 201,233C188.51,224.4 174.47,212.73 158.31,218.31C142.15,223.89 138.83,240.97 134,255C126.19,242.24 125.8,225.32 109.26,218.74C92.72,212.17 78.1,224.37 65,233C67.83,218.29 76.14,201.92 66.08,187.92C56.03,173.92 38.24,176.25 23,175C33.94,164.37 49.95,156.26 50,139C50.05,121.74 34.07,113.18 23,103C38.23,101.17 55.92,103.91 65.92,89.92C75.91,75.93 68.35,59.75 65,45C78.46,52.92 91.32,64.91 108.22,59.22C125.12,53.54 126.16,35.85 134,23ZM144,69C88.51,61.07 47.11,119.78 69.69,168.31C92.28,216.83 156.52,221.52 188.25,181.25C219.98,140.97 195.81,76.4 144,69ZM144,79C187.88,86.13 207.99,143.24 179.75,176.75C151.51,210.26 96.51,204.8 78.08,162.92C59.64,121.05 96.59,71.3 144,79Z" style="fill:white;"/>
    </g>
</svg>
