<?xml version="1.0" encoding="UTF-8" standalone="no"?>
<!DOCTYPE svg PUBLIC "-//W3C//DTD SVG 1.1//EN" "http://www.w3.org/Graphics/SVG/1.1/DTD/svg11.dtd">
<svg width="100%" height="100%" viewBox="0 0 24 24" version="1.1" xmlns="http://www.w3.org/2000/svg" xmlns:xlink="http://www.w3.org/1999/xlink" xml:space="preserve" xmlns:serif="http://www.serif.com/" style="fill-rule:evenodd;clip-rule:evenodd;stroke-linejoin:round;stroke-miterlimit:2;">
    <g id="tune-up.svg" transform="matrix(0.0234375,0,0,0.0234375,12,12)">
        <g transform="matrix(1,0,0,1,-512,-512)">
            <path d="M76.9,558.5L198.2,558.5C220.8,558.5 239.2,540.2 239.2,517.5C239.2,494.9 220.9,476.5 198.2,476.5L76.9,476.5C54.3,476.5 35.9,494.8 35.9,517.5C35.9,540.1 54.3,558.5 76.9,558.5ZM939.7,160.6L827.3,160.6L827.3,131.4C827.3,71.1 778.4,22.2 718.1,22.2C657.8,22.2 608.9,71.1 608.9,131.4L608.9,235C608.9,236.9 609,238.8 609.3,240.6C614,296.6 660.9,340.5 718.1,340.5C774.7,340.5 821.2,297.5 826.7,242.4L939.7,242.4C962.3,242.4 980.7,224.1 980.7,201.4C980.7,178.9 962.3,160.6 939.7,160.6ZM939.7,792.6L827.3,792.6L827.3,785.4C827.3,725.1 778.4,676.2 718.1,676.2C657.8,676.2 608.9,725.1 608.9,785.4L608.9,889C608.9,890.9 609,892.8 609.3,894.6C614,950.6 660.9,994.5 718.1,994.5C775.3,994.5 822.2,950.5 826.9,894.6C827.2,892.8 827.3,890.9 827.3,889L827.3,874.4L939.7,874.4C962.3,874.4 980.7,856.1 980.7,833.4C980.7,810.9 962.3,792.6 939.7,792.6ZM505.3,792.6L76.9,792.6C54.3,792.6 35.9,810.9 35.9,833.6C35.9,856.2 54.2,874.6 76.9,874.6L505.3,874.6C527.9,874.6 546.3,856.3 546.3,833.6C546.3,810.9 527.9,792.6 505.3,792.6ZM76.9,242.5L505.3,242.5C527.9,242.5 546.3,224.2 546.3,201.5C546.3,178.9 528,160.5 505.3,160.5L76.9,160.5C54.3,160.5 35.9,178.8 35.9,201.5C35.9,224.1 54.3,242.5 76.9,242.5ZM939.7,476.6L509.4,476.6L509.4,467.5C509.4,407.2 460.5,358.3 400.2,358.3C339.9,358.3 291,407.2 291,467.5L291,571.1C291,573 291.1,574.9 291.4,576.7C296.1,632.7 343,676.6 400.2,676.6C457.4,676.6 504.3,632.6 509,576.7C509.3,574.9 509.4,573 509.4,571.1L509.4,558.4L939.7,558.4C962.3,558.4 980.7,540.1 980.7,517.4C980.7,494.9 962.3,476.6 939.7,476.6Z" style="fill:rgb(36,36,36);fill-rule:nonzero;"/>
        </g>
    </g>
</svg>
