<?xml version="1.0" standalone="no"?>
<!DOCTYPE svg PUBLIC "-//W3C//DTD SVG 20010904//EN"
 "http://www.w3.org/TR/2001/REC-SVG-20010904/DTD/svg10.dtd">
<svg version="1.0" xmlns="http://www.w3.org/2000/svg"
 width="108.000000pt" height="117.000000pt" viewBox="0 0 108.000000 117.000000"
 preserveAspectRatio="xMidYMid meet">

<g transform="translate(0.000000,117.000000) scale(0.100000,-0.100000)"
fill="#000000" stroke="none">
<path d="M487 1092 c-27 -29 -22 -87 9 -111 14 -11 30 -22 37 -24 19 -6 -27
-91 -65 -121 -18 -14 -53 -40 -78 -58 -52 -39 -77 -78 -88 -139 l-8 -44 249 0
249 0 -5 36 c-8 60 -38 110 -86 143 -95 65 -151 128 -151 169 0 8 11 19 24 25
14 6 30 21 36 32 l12 22 -29 -22 c-22 -15 -37 -19 -57 -14 -45 11 -62 70 -29
106 9 10 12 18 6 18 -5 0 -17 -8 -26 -18z"/>
<path d="M450 936 c-164 -35 -301 -170 -340 -334 -17 -72 -8 -193 19 -262 42
-110 141 -209 251 -252 84 -32 217 -36 298 -9 35 12 82 33 104 47 101 64 180
184 201 308 32 185 -74 386 -246 467 -59 27 -157 53 -167 43 -2 -3 3 -17 12
-32 17 -28 27 -35 117 -74 75 -32 145 -103 183 -185 28 -58 32 -78 32 -148 -1
-104 -28 -176 -95 -250 -165 -180 -447 -162 -582 37 -142 209 -39 498 202 569
30 9 49 22 62 43 20 33 24 47 12 45 -5 0 -33 -6 -63 -13z"/>
<path d="M305 572 c-30 -5 -41 -12 -43 -27 -3 -20 3 -20 283 -20 290 0 309 3
268 36 -12 11 -67 14 -242 16 -124 0 -244 -2 -266 -5z"/>
<path d="M351 509 c-63 -5 -120 -14 -128 -20 -21 -18 -16 -104 9 -152 l23 -42
3 31 c2 18 17 48 35 69 l32 36 35 -36 c34 -35 35 -39 39 -126 3 -85 4 -91 28
-100 13 -5 26 -9 29 -9 2 0 4 50 4 111 0 62 5 120 11 132 14 27 60 77 71 77 4
0 23 -17 43 -37 l34 -38 1 -122 c0 -70 4 -123 9 -123 5 0 21 4 35 10 25 9 26
12 26 95 0 84 1 86 35 123 l35 37 35 -37 c22 -24 35 -48 35 -65 1 -26 3 -25
25 17 24 46 32 113 16 139 -5 7 -31 17 -59 22 -85 13 -342 18 -461 8z"/>
</g>
</svg>
